{"title":"AFL Grand Final (2013) Hawthorn VS Fremantle TV RIP","uid":8975483,"size":3680594570,"categoryP":"video","categoryS":"tv_shows","magnet":"?xt=urn:btih:713d6a626c6357ff1db2ccea0ab0717bb950c548&amp;dn=AFL+Grand+Final+%282013%29+Hawthorn+VS+Fremantle+TV+RIP&amp;tr=udp%3A%2F%2Ftracker.openbittorrent.com%3A80&amp;tr=udp%3A%2F%2Fopen.demonii.com%3A1337&amp;tr=udp%3A%2F%2Ftracker.coppersurfer.tk%3A6969&amp;tr=udp%3A%2F%2Fexodus.desync.com%3A6969","seeders":2,"leechers":0,"uploader":"jmanwf","files":5,"time":1380422043,"description":"Format                                   : MPEG-4\nFormat profile                           : Base Media / Version 2\nCodec ID                                 : mp42\nFile size                                : 3.41 GiB\nDuration                                 : 2h 54mn\nOverall bit rate mode                    : Variable\nOverall bit rate                         : 2 802 Kbps\nEncoded date                             : UTC 2013-09-28 09:54:52\nTagged date                              : UTC 2013-09-28 19:15:03\nWriting application                      : HandBrake 0.9.9 2013052900\n\nVideo\nID                                       : 1\nFormat                                   : AVC\nFormat/Info                              : Advanced Video Codec\nFormat profile                           : &lt;a class=&quot;__cf_email__&quot; href=&quot;/cdn-cgi/l/email-protection&quot; data-cfemail=&quot;b1fcd0d8dff1fd859f81&quot;&gt;[email&amp;#160;protected]&lt;/a&gt;&lt;script cf-hash='f9e31' type=&quot;text/javascript&quot;&gt;\n/* &lt;![CDATA[ */!function(){try{var t=&quot;currentScript&quot;in document?document.currentScript:function(){for(var t=document.getElementsByTagName(&quot;script&quot;),e=t.length;e--;)if(t[e].getAttribute(&quot;cf-hash&quot;))return t[e]}();if(t&amp;&amp;t.previousSibling){var e,r,n,i,c=t.previousSibling,a=c.getAttribute(&quot;data-cfemail&quot;);if(a){for(e=&quot;&quot;,r=parseInt(a.substr(0,2),16),n=2;a.length-n;n+=2)i=parseInt(a.substr(n,2),16)^r,e+=String.fromCharCode(i);e=document.createTextNode(e),c.parentNode.replaceChild(e,c)}}}catch(u){}}();/* ]]&gt; */&lt;/script&gt;\nFormat settings, CABAC                   : Yes\nFormat settings, ReFrames                : 8 frames\nCodec ID                                 : avc1\nCodec ID/Info                            : Advanced Video Coding\nDuration                                 : 2h 54mn\nBit rate mode                            : Variable\nBit rate                                 : 2 701 Kbps\nWidth                                    : 720 pixels\nHeight                                   : 576 pixels\nDisplay aspect ratio                     : 16:9\nFrame rate mode                          : Constant\nFrame rate                               : 25.000 fps\nStandard                                 : PAL\nColor space                              : YUV\nChroma subsampling                       : 4:2:0\nBit depth                                : 8 bits\nScan type                                : Progressive\nBits/(Pixel*Frame)                       : 0.261\nStream size                              : 3.29 GiB (96%)\nWriting library                          : x264 core 130 r2273 b3065e6\nEncoding settings                        : cabac=1 // deblock=1:0:0 / acrf_max=0.0 / nal_hrd=none / ip_ratio=1.40 / aq=1:1.00\nEncoded date                             : UTC 2013-09-28 09:54:52\nTagged date                              : UTC 2013-09-28 19:15:03\nColor primaries                          : BT.601 PAL\nTransfer characteristics                 : BT.709\nMatrix coefficients                      : BT.601\n\nAudio\nID                                       : 2\nFormat                                   : AAC\nFormat/Info                              : Advanced Audio Codec\nFormat profile                           : LC\nCodec ID                                 : 40\nDuration                                 : 2h 54mn\nBit rate mode                            : Variable\nBit rate                                 : 96.0 Kbps\nMaximum bit rate                         : 120 Kbps\nChannel(s)                               : 2 channels\nChannel positions                        : Front: L R\nSampling rate                            : 48.0 KHz\nCompression mode                         : Lossy\nDelay relative to video                  : 80ms\nStream size                              : 120 MiB (3%)\nLanguage                                 : English\nEncoded date                             : UTC 2013-09-28 09:54:52\nTagged date                              : UTC 2013-09-28 19:15:02\n\n\n\n\nAFL Grand Final (2013) Hawthorn VS Fremantle\n\n\n\nOriginal Airdate: 28/9/2013 On Channel 7\n","torrent":{"xt":"urn:btih:713d6a626c6357ff1db2ccea0ab0717bb950c548","amp;dn":"AFL+Grand+Final+%282013%29+Hawthorn+VS+Fremantle+TV+RIP","amp;tr":["udp%3A%2F%2Ftracker.openbittorrent.com%3A80","udp%3A%2F%2Fopen.demonii.com%3A1337","udp%3A%2F%2Ftracker.coppersurfer.tk%3A6969","udp%3A%2F%2Fexodus.desync.com%3A6969"],"infoHash":"713d6a626c6357ff1db2ccea0ab0717bb950c548","infoHashBuffer":{"type":"Buffer","data":[113,61,106,98,108,99,87,255,29,178,204,234,10,176,113,123,185,80,197,72]},"announce":[],"urlList":[]}}